<?xml version="1.0" standalone="no"?>
<!DOCTYPE svg PUBLIC "-//W3C//DTD SVG 20010904//EN"
 "http://www.w3.org/TR/2001/REC-SVG-20010904/DTD/svg10.dtd">
<svg version="1.0" xmlns="http://www.w3.org/2000/svg"
 width="300.000000pt" height="300.000000pt" viewBox="0 0 300.000000 300.000000"
 preserveAspectRatio="xMidYMid meet">
<metadata>
Created by potrace 1.14, written by Peter Selinger 2001-2017
</metadata>
<g transform="translate(0.000000,300.000000) scale(0.100000,-0.100000)"
fill="#000000" stroke="none">
<path d="M1350 2993 c-110 -15 -219 -37 -281 -57 -93 -29 -223 -83 -269 -111
-19 -11 -52 -29 -72 -40 -113 -59 -287 -212 -403 -355 -48 -59 -143 -207 -172
-270 -60 -124 -111 -281 -128 -391 -3 -19 -9 -59 -14 -89 -5 -30 -8 -125 -6
-210 4 -240 44 -405 153 -640 57 -125 206 -323 317 -424 74 -68 206 -169 250
-191 17 -9 59 -31 95 -51 102 -54 247 -107 360 -131 181 -38 447 -39 620 -3
468 99 857 405 1060 835 30 64 74 183 85 228 2 10 7 27 10 37 7 22 11 44 32
170 12 73 10 333 -4 420 -100 650 -588 1145 -1243 1261 -61 11 -336 19 -390
12z"/>
</g>
</svg>
